<svg id="Gruppe_1" data-name="Gruppe 1" xmlns="http://www.w3.org/2000/svg" width="131.805" height="50.679" viewBox="0 0 131.805 50.679">
  <g id="Gruppe_56" data-name="Gruppe 56">
    <path id="Pfad_79" data-name="Pfad 79" d="M418.558,442H406.972l-1.924,5.64h-7.87L408.5,416.945h8.613l11.324,30.692h-7.957Zm-1.924-5.684-3.848-11.367L408.9,436.313Z" transform="translate(-397.179 -416.726)" fill="#101010"/>
    <path id="Pfad_80" data-name="Pfad 80" d="M578.863,442H567.277l-1.924,5.64h-7.87l11.324-30.692h8.613l11.323,30.692h-7.957Zm-1.924-5.684-3.848-11.367L569.2,436.313Z" transform="translate(-524.758 -416.726)" fill="#101010"/>
    <path id="Pfad_81" data-name="Pfad 81" d="M743.273,415.874l-7.389,30.911h-9.269l-4.941-20.68-4.984,20.68h-9.269l-7.389-30.911h8.132l3.978,22.385,5.422-22.385h8.176l5.422,22.385,4.022-22.385Z" transform="translate(-638.207 -415.874)" fill="#101010"/>
    <path id="Pfad_82" data-name="Pfad 82" d="M935.718,435.942v10.843h-7.476V415.874h12.111q5.509,0,8.395,2.733a9.665,9.665,0,0,1,2.886,7.367,10.153,10.153,0,0,1-1.29,5.137,8.942,8.942,0,0,1-3.826,3.541,13.474,13.474,0,0,1-6.165,1.29Zm8.307-9.968q0-4.066-4.5-4.066h-3.8v8.044h3.8Q944.025,429.952,944.025,425.973Z" transform="translate(-819.828 -415.874)" fill="#101010"/>
    <path id="Pfad_83" data-name="Pfad 83" d="M457.445,593.126l-.192.126c-8.338,5.489-18.048,7.6-28.082,7.6s-19.742-2.114-28.08-7.6l-.192-.126-3.72,5.651.192.127c9.445,6.218,20.441,8.717,31.8,8.717s22.357-2.5,31.8-8.717l.192-.127Z" transform="translate(-397.179 -556.941)" fill="#2a63f6"/>
  </g>
</svg>
