<svg xmlns="http://www.w3.org/2000/svg" width="99.686" height="99.687" viewBox="0 0 99.686 99.687">
  <g id="Gruppe_3307" data-name="Gruppe 3307" transform="translate(-2.25 -2.25)">
    <path id="Pfad_8001" data-name="Pfad 8001" d="M34.489,11.543a19.05,19.05,0,0,0-9.525,4.192l-4.957,4.957L42.7,43.387l4.957-4.957h0A19.053,19.053,0,0,0,51.85,28.9a14.685,14.685,0,0,0-4.192-13.169A14.686,14.686,0,0,0,34.489,11.543ZM33.34,3.961a22.341,22.341,0,0,1,19.74,6.352,22.341,22.341,0,0,1,6.352,19.74c-.908,5.993-3.8,11.243-6.352,13.8L45.412,51.52a3.834,3.834,0,0,1-5.422,0L11.873,23.4a3.834,3.834,0,0,1,0-5.422l7.668-7.668c2.556-2.556,7.806-5.444,13.8-6.352Z" transform="translate(34.953 5.841)" fill="#2a63f6" fill-rule="evenodd"/>
    <path id="Pfad_8002" data-name="Pfad 8002" d="M37.075,3.373a3.834,3.834,0,0,1,0,5.422l-12.78,12.78a3.834,3.834,0,1,1-5.422-5.422l12.78-12.78a3.834,3.834,0,0,1,5.422,0Z" transform="translate(63.738 0)" fill="#2a63f6" fill-rule="evenodd"/>
    <path id="Pfad_8003" data-name="Pfad 8003" d="M20.692,10.75A3.833,3.833,0,0,1,23.4,11.873L51.519,39.99a3.834,3.834,0,0,1,0,5.422L43.852,53.08c-2.556,2.556-7.806,5.444-13.8,6.352a22.341,22.341,0,0,1-19.74-6.352m0,0A22.341,22.341,0,0,1,3.961,33.34c.908-5.993,3.8-11.243,6.351-13.8l7.668-7.668a3.833,3.833,0,0,1,2.711-1.123m0,9.256-4.957,4.957h0a19.049,19.049,0,0,0-4.192,9.525,14.686,14.686,0,0,0,4.192,13.169A14.686,14.686,0,0,0,28.9,51.85a19.052,19.052,0,0,0,9.525-4.192L43.386,42.7Z" transform="translate(5.839 34.953)" fill="#2a63f6" fill-rule="evenodd"/>
    <path id="Pfad_8004" data-name="Pfad 8004" d="M27.519,14.373a3.834,3.834,0,0,1,0,5.422L17.295,30.019A3.834,3.834,0,0,1,11.873,24.6L22.1,14.373A3.834,3.834,0,0,1,27.519,14.373Z" transform="translate(34.953 45.233)" fill="#2a63f6" fill-rule="evenodd"/>
    <path id="Pfad_8005" data-name="Pfad 8005" d="M21.574,18.873a3.834,3.834,0,0,1,0,5.422L8.8,37.075a3.834,3.834,0,0,1-5.422-5.422l12.78-12.78A3.832,3.832,0,0,1,21.574,18.873Z" transform="translate(0 63.738)" fill="#2a63f6" fill-rule="evenodd"/>
    <path id="Pfad_8006" data-name="Pfad 8006" d="M24.019,10.873a3.834,3.834,0,0,1,0,5.422L13.8,26.519A3.834,3.834,0,0,1,8.373,21.1L18.6,10.873a3.834,3.834,0,0,1,5.422,0Z" transform="translate(20.561 30.841)" fill="#2a63f6" fill-rule="evenodd"/>
  </g>
</svg>
