<svg xmlns="http://www.w3.org/2000/svg" width="111.957" height="96.857" viewBox="0 0 111.957 96.857">
  <g id="beginners-guide" transform="translate(1 -34.143)">
    <g id="XMLID_1568_" transform="translate(0 35.143)">
      <path id="XMLID_1571_" d="M101.365,35.143H8.591A8.6,8.6,0,0,0,0,43.734V104.16a8.6,8.6,0,0,0,8.591,8.591H43.128v12.955H38.8a2.147,2.147,0,1,0,0,4.294H71.15a2.147,2.147,0,0,0,0-4.294H66.828V112.753h34.537a8.6,8.6,0,0,0,8.591-8.591V43.736a8.6,8.6,0,0,0-8.591-8.593ZM62.534,125.71H47.423V112.753H62.534Zm43.128-21.546a4.3,4.3,0,0,1-4.294,4.294H8.591a4.3,4.3,0,0,1-4.3-4.294V43.739a4.3,4.3,0,0,1,4.294-4.294h92.777a4.3,4.3,0,0,1,4.294,4.294Z" transform="translate(0 -35.143)" fill="#2863f6"/>
      <path id="XMLID_1571__-_Kontur" data-name="XMLID_1571_ - Kontur" d="M101.367,34.143a9.6,9.6,0,0,1,9.59,9.593v60.427a9.6,9.6,0,0,1-9.59,9.591H67.828v10.952H71.15a3.147,3.147,0,0,1,0,6.294H38.8a3.147,3.147,0,1,1,0-6.294h3.324V113.751H8.591A9.6,9.6,0,0,1-1,104.161V43.734a9.6,9.6,0,0,1,9.59-9.591Zm0,77.61a7.612,7.612,0,0,0,7.591-7.592V43.736a7.612,7.612,0,0,0-7.592-7.593H8.591A7.612,7.612,0,0,0,1,43.735V104.16a7.612,7.612,0,0,0,7.592,7.591H44.128v14.955H38.8a1.147,1.147,0,1,0,0,2.294H71.15a1.147,1.147,0,1,0,0-2.294H65.828V111.753ZM8.588,38.444h92.778a5.308,5.308,0,0,1,5.294,5.293l0,60.427a5.308,5.308,0,0,1-5.293,5.294H8.591a5.307,5.307,0,0,1-5.3-5.293V43.739A5.308,5.308,0,0,1,8.588,38.444Zm92.779,69.015a3.3,3.3,0,0,0,3.3-3.3l0-60.425a3.3,3.3,0,0,0-3.3-3.294H8.589a3.3,3.3,0,0,0-3.294,3.3v60.425a3.3,3.3,0,0,0,3.3,3.294h92.775Zm-54.944,4.294H63.534V126.71H46.423Zm15.111,2H48.423V124.71H61.534Z" transform="translate(0 -35.143)" fill="#2863f6"/>
      <path id="XMLID_1573_" d="M242.419,336.367h-4.313a2.147,2.147,0,1,0,0,4.294h4.313a2.147,2.147,0,0,0,0-4.294Z" transform="translate(-185.284 -271.677)" fill="#2863f6"/>
      <path id="XMLID_1573__-_Kontur" data-name="XMLID_1573_ - Kontur" d="M238.106,335.367h4.313a3.147,3.147,0,0,1,0,6.294h-4.313a3.147,3.147,0,1,1,0-6.294Zm4.313,4.294a1.147,1.147,0,0,0,0-2.294h-4.313a1.147,1.147,0,1,0,0,2.294Z" transform="translate(-185.284 -271.677)" fill="#2863f6"/>
      <path id="XMLID_1574_" d="M288.31,210.132h2.156a2.147,2.147,0,0,0,0-4.294H288.31a2.147,2.147,0,0,0,0,4.294Z" transform="translate(-224.706 -169.177)" fill="#2863f6"/>
      <path id="XMLID_1574__-_Kontur" data-name="XMLID_1574_ - Kontur" d="M290.467,211.132H288.31a3.147,3.147,0,0,1,0-6.294h2.156a3.147,3.147,0,0,1,0,6.294Zm-2.156-4.294a1.147,1.147,0,0,0,0,2.294h2.156a1.147,1.147,0,0,0,0-2.294Z" transform="translate(-224.706 -169.177)" fill="#2863f6"/>
      <path id="XMLID_1575_" d="M288.31,169.968h2.156a2.147,2.147,0,0,0,0-4.294H288.31a2.147,2.147,0,0,0,0,4.294Z" transform="translate(-224.706 -137.641)" fill="#2863f6"/>
      <path id="XMLID_1575__-_Kontur" data-name="XMLID_1575_ - Kontur" d="M290.467,170.968H288.31a3.147,3.147,0,0,1,0-6.294h2.156a3.147,3.147,0,0,1,0,6.294Zm-2.156-4.294a1.147,1.147,0,0,0,0,2.294h2.156a1.147,1.147,0,0,0,0-2.294Z" transform="translate(-224.706 -137.641)" fill="#2863f6"/>
      <path id="XMLID_1576_" d="M200.1,205.836h-2.156a2.147,2.147,0,0,0,0,4.294H200.1a2.147,2.147,0,1,0,0-4.294Z" transform="translate(-153.747 -169.179)" fill="#2863f6"/>
      <path id="XMLID_1576__-_Kontur" data-name="XMLID_1576_ - Kontur" d="M197.943,204.836H200.1a3.147,3.147,0,1,1,0,6.294h-2.156a3.147,3.147,0,0,1,0-6.294Zm2.156,4.294a1.147,1.147,0,1,0,0-2.294h-2.156a1.147,1.147,0,0,0,0,2.294Z" transform="translate(-153.747 -169.179)" fill="#2863f6"/>
      <path id="XMLID_1577_" d="M200.1,165.674h-2.156a2.147,2.147,0,1,0,0,4.294H200.1a2.147,2.147,0,1,0,0-4.294Z" transform="translate(-153.747 -137.641)" fill="#2863f6"/>
      <path id="XMLID_1577__-_Kontur" data-name="XMLID_1577_ - Kontur" d="M197.943,164.674H200.1a3.147,3.147,0,1,1,0,6.294h-2.156a3.147,3.147,0,1,1,0-6.294Zm2.156,4.294a1.147,1.147,0,1,0,0-2.294h-2.156a1.147,1.147,0,1,0,0,2.294Z" transform="translate(-153.747 -137.641)" fill="#2863f6"/>
      <path id="XMLID_1580_" d="M196.592,115.469H183.628a8.57,8.57,0,0,0-6.441,2.917,8.57,8.57,0,0,0-6.442-2.917H157.781a2.147,2.147,0,0,0-2.147,2.147v30.19a2.147,2.147,0,0,0,2.147,2.147h38.813a2.147,2.147,0,0,0,2.147-2.147v-30.19a2.147,2.147,0,0,0-2.149-2.147Zm-21.555,30.19h-15.1v-25.9h10.817a4.3,4.3,0,0,1,4.294,4.294Zm19.408,0H179.334v-21.6a4.3,4.3,0,0,1,4.294-4.294h10.817Z" transform="translate(-122.208 -98.218)" fill="#2863f6"/>
      <path id="XMLID_1580__-_Kontur" data-name="XMLID_1580_ - Kontur" d="M157.781,114.469h12.964a9.572,9.572,0,0,1,6.442,2.492,9.571,9.571,0,0,1,6.441-2.492h12.966a3.147,3.147,0,0,1,3.147,3.147v30.19a3.151,3.151,0,0,1-3.147,3.147H157.781a3.151,3.151,0,0,1-3.147-3.147v-30.19A3.151,3.151,0,0,1,157.781,114.469Zm38.813,34.484a1.149,1.149,0,0,0,1.147-1.147v-30.19a1.147,1.147,0,0,0-1.147-1.147v0H183.628a7.571,7.571,0,0,0-5.69,2.577l-.752.857-.752-.857a7.571,7.571,0,0,0-5.69-2.577H157.781a1.148,1.148,0,0,0-1.147,1.147v30.19a1.149,1.149,0,0,0,1.147,1.147Zm-37.657-30.19h11.817a5.308,5.308,0,0,1,5.294,5.293l-.012,22.6h-17.1Zm15.1,25.9.011-20.6a3.3,3.3,0,0,0-3.3-3.294h-9.816v23.9Zm9.589-25.893h11.818v27.893H178.334v-22.6A5.308,5.308,0,0,1,183.627,118.766Zm9.818,2h-9.817a3.3,3.3,0,0,0-3.294,3.3v20.6h13.111Z" transform="translate(-122.208 -98.218)" fill="#2863f6"/>
    </g>
  </g>
</svg>
