<svg xmlns="http://www.w3.org/2000/svg" width="154.559" height="133.094" viewBox="0 0 154.559 133.094">
  <g id="bestseller-list" transform="translate(1 -35)">
    <g id="Gruppe_1875" data-name="Gruppe 1875" transform="translate(0 36)">
      <path id="Pfad_1760" data-name="Pfad 1760" d="M143.619,36H8.939A8.949,8.949,0,0,0,0,44.936V134.32a8.949,8.949,0,0,0,8.939,8.939h49.5l-2.528,17.879H52.437a2.981,2.981,0,0,0,0,5.955h47.681a2.981,2.981,0,0,0,0-5.959H96.647l-2.528-17.879h49.5a8.949,8.949,0,0,0,8.939-8.936V44.936A8.949,8.949,0,0,0,143.619,36ZM8.939,41.955h134.68a2.984,2.984,0,0,1,2.981,2.981V123.9H5.959V44.936a2.984,2.984,0,0,1,2.981-2.981Zm81.69,119.189h-28.7l2.528-17.879H88.1Zm52.99-23.837H8.939a2.984,2.984,0,0,1-2.981-2.981v-4.47H146.6v4.463a2.984,2.984,0,0,1-2.981,2.984Z" transform="translate(0 -36)" fill="#2963f6"/>
      <path id="Pfad_1760_-_Kontur" data-name="Pfad 1760 - Kontur" d="M8.938,35H143.619a9.949,9.949,0,0,1,9.939,9.935V134.32a9.949,9.949,0,0,1-9.938,9.936H95.27l2.245,15.879h2.635a3.981,3.981,0,0,1,0,7.957H52.392a3.981,3.981,0,0,1,0-7.953h2.651l2.245-15.879H8.939A9.949,9.949,0,0,1-1,134.321V44.936A9.949,9.949,0,0,1,8.938,35ZM143.619,142.257a7.949,7.949,0,0,0,7.939-7.938V44.936A7.949,7.949,0,0,0,143.618,37H8.94A7.949,7.949,0,0,0,1,44.938V134.32a7.949,7.949,0,0,0,7.94,7.939H59.591L56.78,162.138H52.463a1.981,1.981,0,0,0,0,3.955H100.1a1.981,1.981,0,0,0,0-3.959H95.779l-2.811-19.879ZM8.938,40.955H143.619a3.99,3.99,0,0,1,3.981,3.98V124.9H4.959V44.936A3.99,3.99,0,0,1,8.938,40.955ZM145.6,122.9V44.936a1.987,1.987,0,0,0-1.982-1.981H8.939a1.987,1.987,0,0,0-1.981,1.982V122.9ZM4.959,128.857H147.6v5.463a3.992,3.992,0,0,1-2.981,3.856v.128l-1,0H8.939a3.99,3.99,0,0,1-3.981-3.98Zm140.642,2H6.959v3.47a1.987,1.987,0,0,0,1.982,1.981l134.678,0a1.987,1.987,0,0,0,1.982-1.984ZM63.589,142.266H88.97l2.811,19.879h-31Zm23.644,2H65.326l-2.245,15.879h26.4Z" transform="translate(0 -36)" fill="#2863f6"/>
      <path id="Pfad_1764" data-name="Pfad 1764" d="M197.973,101.958h75.089a2.981,2.981,0,0,0,0-5.958H197.973a2.981,2.981,0,0,0,0,5.958Z" transform="translate(-136.89 -78.123)" fill="#2963f6"/>
      <path id="Pfad_1764_-_Kontur" data-name="Pfad 1764 - Kontur" d="M273.078,102.958H197.941a3.981,3.981,0,0,1,0-7.957h75.153a3.981,3.981,0,0,1,0,7.957Zm-75.087-2h75.053a1.981,1.981,0,0,0,0-3.958H197.991a1.981,1.981,0,0,0,0,3.958Z" transform="translate(-136.89 -78.123)" fill="#2863f6"/>
      <path id="Pfad_1765" data-name="Pfad 1765" d="M197.973,189.458h75.089a2.981,2.981,0,0,0,0-5.958H197.973a2.981,2.981,0,0,0,0,5.959Z" transform="translate(-136.89 -139.551)" fill="#2963f6"/>
      <path id="Pfad_1765_-_Kontur" data-name="Pfad 1765 - Kontur" d="M273.078,190.458H197.941a3.981,3.981,0,0,1,0-7.958h75.154a3.981,3.981,0,0,1,0,7.957Zm-75.087-2h75.053a1.981,1.981,0,0,0,0-3.958H197.991a1.981,1.981,0,0,0,0,3.959Z" transform="translate(-136.89 -139.551)" fill="#2863f6"/>
      <path id="Pfad_1766" data-name="Pfad 1766" d="M197.974,276.957h75.089a2.981,2.981,0,0,0,0-5.958H197.974a2.981,2.981,0,0,0,0,5.958Z" transform="translate(-136.89 -200.979)" fill="#2963f6"/>
      <path id="Pfad_1766_-_Kontur" data-name="Pfad 1766 - Kontur" d="M273.078,277.957H197.941a3.981,3.981,0,0,1,0-7.957h75.153a3.981,3.981,0,0,1,0,7.957Zm-75.087-2h75.053a1.981,1.981,0,0,0,0-3.958H197.991a1.981,1.981,0,0,0,0,3.958Z" transform="translate(-136.89 -200.979)" fill="#2863f6"/>
      <path id="Pfad_1767" data-name="Pfad 1767" d="M197.973,145.708h37.543a2.981,2.981,0,0,0,0-5.958H197.973a2.981,2.981,0,0,0,0,5.959Z" transform="translate(-136.89 -108.839)" fill="#2963f6"/>
      <path id="Pfad_1767_-_Kontur" data-name="Pfad 1767 - Kontur" d="M235.532,146.708H197.941a3.981,3.981,0,0,1,0-7.957h37.608a3.981,3.981,0,0,1,0,7.957Zm-37.541-5.959a1.981,1.981,0,0,0,0,3.959H235.5a1.981,1.981,0,0,0,0-3.958Z" transform="translate(-136.89 -108.839)" fill="#2863f6"/>
      <path id="Pfad_1768" data-name="Pfad 1768" d="M197.974,233.208h37.543a2.981,2.981,0,0,0,0-5.958H197.974a2.981,2.981,0,0,0,0,5.958Z" transform="translate(-136.89 -170.267)" fill="#2963f6"/>
      <path id="Pfad_1768_-_Kontur" data-name="Pfad 1768 - Kontur" d="M235.532,234.208H197.941a3.981,3.981,0,0,1,0-7.957h37.607a3.981,3.981,0,0,1,0,7.957Zm-37.541-2H235.5a1.981,1.981,0,0,0,0-3.958H197.991a1.981,1.981,0,0,0,0,3.958Z" transform="translate(-136.89 -170.267)" fill="#2863f6"/>
      <g id="Gruppe_1876" data-name="Gruppe 1876" transform="translate(18.774 6.424)">
        <text id="_1" data-name="1" transform="translate(0 14)" fill="#2963f6" font-size="15" font-family="Gilroy-Bold, Gilroy" font-weight="700"><tspan x="0" y="0">1</tspan></text>
        <path id="_1_-_Kontur" data-name="1 - Kontur" d="M2.754-11.5H5.725V1H1.655V-6.991l-1.666.467-1.046-3.63Zm.971,2h-.07V-1h.07Z" transform="translate(0 14)" fill="#2863f6"/>
        <text id="_2" data-name="2" transform="translate(0 32.771)" fill="#2963f6" font-size="15" font-family="Gilroy-Bold, Gilroy" font-weight="700"><tspan x="0" y="0">2</tspan></text>
        <path id="_2_-_Kontur" data-name="2 - Kontur" d="M8.425,1H-.595V-1.951L3.27-5.929c.231-.241.92-.962.92-1.406,0-.219-.062-.365-.365-.365-.136,0-.548,0-.847.648l-.462,1L-.95-8.081-.582-8.9A4.677,4.677,0,0,1,3.8-11.71,4.632,4.632,0,0,1,6.862-10.6,4.167,4.167,0,0,1,8.26-7.41,5.787,5.787,0,0,1,6.242-3.343L5.894-3H8.425ZM3.825-9.7A2.287,2.287,0,0,1,6.19-7.335a2.854,2.854,0,0,1-.374,1.362A2.755,2.755,0,0,0,6.26-7.41,2.293,2.293,0,0,0,3.8-9.71a2.71,2.71,0,0,0-2.068.879l.042.024A2.756,2.756,0,0,1,3.825-9.7Z" transform="translate(0 32.771)" fill="#2863f6"/>
        <text id="_3" data-name="3" transform="translate(0 51.543)" fill="#2963f6" font-size="15" font-family="Gilroy-Bold, Gilroy" font-weight="700"><tspan x="0" y="0">3</tspan></text>
        <path id="_3_-_Kontur" data-name="3 - Kontur" d="M-.34-11.5h8.6v3.051L6.85-6.62A3.947,3.947,0,0,1,8.695-3.24,4.266,4.266,0,0,1,7.207.094,5.046,5.046,0,0,1,3.945,1.21,4.641,4.641,0,0,1-.583-1.639l-.322-.8L2.476-4.392l-1-1.515L2.743-7.565H-.34ZM3.945-.79a2.439,2.439,0,0,0,2.75-2.45,1.935,1.935,0,0,0-.343-1.142A2.436,2.436,0,0,1,6.625-3.24,2.425,2.425,0,0,1,3.945-.815a2.855,2.855,0,0,1-2.183-.857l-.036.021A3.029,3.029,0,0,0,3.945-.79Zm0-2.025c.68,0,.68-.276.68-.425s0-.425-.68-.425H2.959l.106.324C3.156-3.064,3.291-2.815,3.945-2.815Z" transform="translate(0 51.543)" fill="#2863f6"/>
        <text id="_4" data-name="4" transform="translate(0 70.317)" fill="#2963f6" font-size="15" font-family="Gilroy-Bold, Gilroy" font-weight="700"><tspan x="0" y="0">4</tspan></text>
        <path id="_4_-_Kontur" data-name="4 - Kontur" d="M8.365,1H4.28V-.785H-.685V-3.947L3.2-11.5H7.666l-2.2,4.3h2.9V-4.7H9.49v3.92H8.365ZM6.28-1h.085V-5.2H6.28Z" transform="translate(0 70.317)" fill="#2863f6"/>
      </g>
    </g>
  </g>
</svg>
