<svg xmlns="http://www.w3.org/2000/svg" width="148.944" height="148.943" viewBox="0 0 148.944 148.943">
  <g id="product-box-3" transform="translate(1 1)">
    <g id="Gruppe_1872" data-name="Gruppe 1872" transform="translate(14.159 14.159)">
      <g id="Gruppe_1871" data-name="Gruppe 1871" transform="translate(0 0)">
        <g id="Gruppe_1869" data-name="Gruppe 1869">
          <circle id="XMLID_424_" cx="5.977" cy="5.977" r="5.977" fill="#2963f6"/>
          <path id="XMLID_424__-_Kontur" data-name="XMLID_424_ - Kontur" d="M5.977-1A6.977,6.977,0,1,1-1,5.977,6.985,6.985,0,0,1,5.977-1Zm0,11.954A4.977,4.977,0,1,0,1,5.977,4.982,4.982,0,0,0,5.977,10.954Z" fill="#2963f6"/>
          <ellipse id="XMLID_422_" cx="5.664" cy="5.977" rx="5.664" ry="5.977" transform="translate(23.286)" fill="#2963f6"/>
          <path id="XMLID_422__-_Kontur" data-name="XMLID_422_ - Kontur" d="M5.664-1a6.834,6.834,0,0,1,6.664,6.977,6.834,6.834,0,0,1-6.664,6.977A6.834,6.834,0,0,1-1,5.977,6.834,6.834,0,0,1,5.664-1Zm0,11.954a4.834,4.834,0,0,0,4.664-4.977A4.834,4.834,0,0,0,5.664,1,4.834,4.834,0,0,0,1,5.977,4.834,4.834,0,0,0,5.664,10.954Z" transform="translate(23.286)" fill="#2963f6"/>
          <ellipse id="XMLID_421_" cx="5.664" cy="5.977" rx="5.664" ry="5.977" transform="translate(46.568)" fill="#2963f6"/>
          <path id="XMLID_421__-_Kontur" data-name="XMLID_421_ - Kontur" d="M5.664-1a6.834,6.834,0,0,1,6.664,6.977,6.834,6.834,0,0,1-6.664,6.977A6.834,6.834,0,0,1-1,5.977,6.834,6.834,0,0,1,5.664-1Zm0,11.954a4.834,4.834,0,0,0,4.664-4.977A4.834,4.834,0,0,0,5.664,1,4.834,4.834,0,0,0,1,5.977,4.834,4.834,0,0,0,5.664,10.954Z" transform="translate(46.568)" fill="#2963f6"/>
        </g>
      </g>
    </g>
    <g id="Gruppe_1873" data-name="Gruppe 1873">
      <path id="Pfad_1750" data-name="Pfad 1750" d="M135.42,0H11.524A11.538,11.538,0,0,0,0,11.524v123.9a11.538,11.538,0,0,0,11.524,11.524h123.9a11.538,11.538,0,0,0,11.524-11.524V11.524A11.538,11.538,0,0,0,135.42,0ZM11.524,5.764h123.9a5.771,5.771,0,0,1,5.757,5.76V34.573H5.764V11.524a5.771,5.771,0,0,1,5.76-5.76Zm123.9,135.413H11.524a5.771,5.771,0,0,1-5.764-5.764V40.337H141.177V135.42a5.771,5.771,0,0,1-5.757,5.757Z" fill="#2963f6"/>
      <path id="Pfad_1750_-_Kontur" data-name="Pfad 1750 - Kontur" d="M11.523-1h123.9a12.538,12.538,0,0,1,12.524,12.523v123.9a12.538,12.538,0,0,1-12.523,12.524H11.524A12.538,12.538,0,0,1-1,135.421V11.524A12.538,12.538,0,0,1,11.523-1Zm123.9,146.944a10.538,10.538,0,0,0,10.524-10.525V11.524A10.538,10.538,0,0,0,135.418,1H11.525A10.538,10.538,0,0,0,1,11.525V135.42a10.538,10.538,0,0,0,10.525,10.524ZM11.522,4.764h123.9a6.771,6.771,0,0,1,6.757,6.759v24.05H4.764V11.524a6.771,6.771,0,0,1,6.759-6.76ZM140.177,33.573V11.524a4.78,4.78,0,0,0-4.759-4.76H11.524a4.779,4.779,0,0,0-4.76,4.762V33.573ZM4.76,39.337H142.177V135.42a6.771,6.771,0,0,1-6.755,6.757H11.524a6.782,6.782,0,0,1-6.764-6.763Zm135.416,2H6.76v94.076a4.778,4.778,0,0,0,4.765,4.764H135.417a4.781,4.781,0,0,0,4.759-4.759Z" fill="#2963f6"/>
      <path id="Pfad_1751" data-name="Pfad 1751" d="M312.882,65.764h40.337a2.882,2.882,0,1,0,0-5.764H312.882a2.882,2.882,0,0,0,0,5.764Z" transform="translate(-220.681 -42.712)" fill="#2963f6"/>
      <path id="Pfad_1751_-_Kontur" data-name="Pfad 1751 - Kontur" d="M353.218,66.764H312.882a3.882,3.882,0,0,1,0-7.764h40.337a3.882,3.882,0,1,1,0,7.764ZM312.882,61a1.882,1.882,0,0,0,0,3.764h40.337a1.882,1.882,0,1,0,0-3.764Z" transform="translate(-220.681 -42.712)" fill="#2963f6"/>
      <path id="Pfad_1752" data-name="Pfad 1752" d="M74.576,180H42.882a2.882,2.882,0,0,0,0,5.764H74.576a2.882,2.882,0,1,0,0-5.764Z" transform="translate(-28.476 -128.136)" fill="#2963f6"/>
      <path id="Pfad_1752_-_Kontur" data-name="Pfad 1752 - Kontur" d="M42.882,179H74.576a3.882,3.882,0,0,1,0,7.764H42.882a3.882,3.882,0,0,1,0-7.764Zm31.694,5.764a1.882,1.882,0,1,0,0-3.764H42.882a1.882,1.882,0,0,0,0,3.764Z" transform="translate(-28.476 -128.136)" fill="#2963f6"/>
      <path id="Pfad_1753" data-name="Pfad 1753" d="M74.576,230H42.882a2.882,2.882,0,0,0,0,5.764H74.576a2.882,2.882,0,0,0,0-5.764Z" transform="translate(-28.476 -163.73)" fill="#2963f6"/>
      <path id="Pfad_1753_-_Kontur" data-name="Pfad 1753 - Kontur" d="M42.882,229H74.576a3.882,3.882,0,0,1,0,7.764H42.882a3.882,3.882,0,0,1,0-7.764Zm31.694,5.764a1.882,1.882,0,1,0,0-3.764H42.882a1.882,1.882,0,0,0,0,3.764Z" transform="translate(-28.476 -163.73)" fill="#2963f6"/>
      <path id="Pfad_1754" data-name="Pfad 1754" d="M74.576,280H42.882a2.882,2.882,0,1,0,0,5.764H74.576a2.882,2.882,0,1,0,0-5.764Z" transform="translate(-28.476 -199.323)" fill="#2963f6"/>
      <path id="Pfad_1754_-_Kontur" data-name="Pfad 1754 - Kontur" d="M42.882,279H74.576a3.882,3.882,0,0,1,0,7.764H42.882a3.882,3.882,0,1,1,0-7.764Zm31.694,5.764a1.882,1.882,0,1,0,0-3.764H42.882a1.882,1.882,0,1,0,0,3.764Z" transform="translate(-28.476 -199.323)" fill="#2963f6"/>
      <path id="Pfad_1755" data-name="Pfad 1755" d="M74.576,330H42.882a2.882,2.882,0,0,0,0,5.764H74.576a2.882,2.882,0,1,0,0-5.764Z" transform="translate(-28.476 -234.917)" fill="#2963f6"/>
      <path id="Pfad_1755_-_Kontur" data-name="Pfad 1755 - Kontur" d="M42.882,329H74.576a3.882,3.882,0,0,1,0,7.764H42.882a3.882,3.882,0,0,1,0-7.764Zm31.694,5.764a1.882,1.882,0,0,0,0-3.764H42.882a1.882,1.882,0,0,0,0,3.764H74.576Z" transform="translate(-28.476 -234.917)" fill="#2963f6"/>
      <path id="Pfad_1756" data-name="Pfad 1756" d="M74.576,380H42.882a2.882,2.882,0,1,0,0,5.764H74.576a2.882,2.882,0,1,0,0-5.764Z" transform="translate(-28.476 -270.511)" fill="#2963f6"/>
      <path id="Pfad_1756_-_Kontur" data-name="Pfad 1756 - Kontur" d="M42.882,379H74.576a3.882,3.882,0,0,1,0,7.764H42.882a3.882,3.882,0,1,1,0-7.764Zm31.694,5.764a1.882,1.882,0,1,0,0-3.764H42.882a1.882,1.882,0,1,0,0,3.764Z" transform="translate(-28.476 -270.511)" fill="#2963f6"/>
      <path id="Pfad_1757" data-name="Pfad 1757" d="M74.576,430H42.882a2.882,2.882,0,0,0,0,5.764H74.576a2.882,2.882,0,1,0,0-5.764Z" transform="translate(-28.476 -306.105)" fill="#2963f6"/>
      <path id="Pfad_1757_-_Kontur" data-name="Pfad 1757 - Kontur" d="M42.882,429H74.576a3.882,3.882,0,0,1,0,7.764H42.882a3.882,3.882,0,0,1,0-7.764Zm31.694,5.764a1.882,1.882,0,0,0,0-3.764H42.882a1.882,1.882,0,0,0,0,3.764H74.576Z" transform="translate(-28.476 -306.105)" fill="#2963f6"/>
      <path id="Pfad_1758" data-name="Pfad 1758" d="M293.216,234.406h-8.642v-2.882a11.524,11.524,0,0,0-23.049,0v2.882h-8.642A2.882,2.882,0,0,0,250,237.288v25.931a11.538,11.538,0,0,0,11.524,11.524h23.048A11.538,11.538,0,0,0,296.1,263.219v-25.93a2.882,2.882,0,0,0-2.882-2.882Zm-25.93-2.882a5.764,5.764,0,1,1,11.524,0v2.882H267.286Zm23.049,31.694a5.771,5.771,0,0,1-5.764,5.764H261.522a5.771,5.771,0,0,1-5.764-5.764V240.17h5.764v5.764a2.882,2.882,0,1,0,5.764,0V240.17H278.81v5.764a2.882,2.882,0,1,0,5.764,0V240.17h5.764Z" transform="translate(-177.967 -156.611)" fill="#2963f6"/>
      <path id="Pfad_1758_-_Kontur" data-name="Pfad 1758 - Kontur" d="M273.049,219h0a12.524,12.524,0,0,1,12.524,12.524v1.882h7.642a3.882,3.882,0,0,1,3.882,3.882v25.93a12.538,12.538,0,0,1-12.523,12.524h-23.05A12.538,12.538,0,0,1,249,263.22V237.288a3.882,3.882,0,0,1,3.882-3.882h7.642v-1.882A12.524,12.524,0,0,1,273.049,219Zm10.524,16.406v-3.882A10.524,10.524,0,0,0,273.049,221h0a10.524,10.524,0,0,0-10.524,10.524v3.882h-9.642A1.882,1.882,0,0,0,251,237.288v25.931a10.538,10.538,0,0,0,10.525,10.524h23.047A10.538,10.538,0,0,0,295.1,263.217V237.288a1.884,1.884,0,0,0-1.882-1.882ZM273.048,224.62a6.764,6.764,0,0,1,6.762,6.916v3.87H266.286v-3.87a6.764,6.764,0,0,1,6.762-6.916Zm4.762,8.786V231.5a4.764,4.764,0,1,0-9.525,0v1.906Zm-23.052,5.764h7.764v6.764a1.882,1.882,0,1,0,3.764,0V239.17H279.81v6.764a1.882,1.882,0,1,0,3.764,0V239.17h7.764l0,24.049a6.782,6.782,0,0,1-6.763,6.764h-23.05a6.782,6.782,0,0,1-6.764-6.763Zm5.764,2h-3.764v22.049a4.778,4.778,0,0,0,4.765,4.764H284.57a4.778,4.778,0,0,0,4.764-4.765l0-22.047h-3.764v4.764a3.882,3.882,0,1,1-7.764,0V241.17h-9.524v4.764a3.882,3.882,0,1,1-7.764,0Z" transform="translate(-177.967 -156.611)" fill="#2963f6"/>
    </g>
  </g>
</svg>
