<svg id="Gruppe_3304" data-name="Gruppe 3304" xmlns="http://www.w3.org/2000/svg" width="153.125" height="58.877" viewBox="0 0 153.125 58.877">
  <path id="Pfad_79" data-name="Pfad 79" d="M422.017,446.049h-13.46l-2.235,6.552h-9.143l13.155-35.657H420.34L433.5,452.6h-9.244Zm-2.235-6.6-4.47-13.206-4.52,13.206Z" transform="translate(-397.179 -416.691)" fill="#fff"/>
  <path id="Pfad_80" data-name="Pfad 80" d="M582.322,446.049h-13.46l-2.235,6.552h-9.143l13.155-35.657h10.006L593.8,452.6h-9.244Zm-2.235-6.6-4.47-13.206-4.52,13.206Z" transform="translate(-519.465 -416.691)" fill="#fff"/>
  <path id="Pfad_81" data-name="Pfad 81" d="M750.267,415.874l-8.584,35.911H730.915l-5.74-24.025-5.79,24.025H708.617l-8.584-35.911h9.448L714.1,441.88l6.3-26.006h9.5l6.3,26.006,4.673-26.006Z" transform="translate(-628.206 -415.874)" fill="#fff"/>
  <path id="Pfad_82" data-name="Pfad 82" d="M936.928,439.188v12.6h-8.686V415.874h14.07q6.4,0,9.752,3.175a11.228,11.228,0,0,1,3.352,8.558,11.8,11.8,0,0,1-1.5,5.968,10.388,10.388,0,0,1-4.445,4.114,15.653,15.653,0,0,1-7.162,1.5Zm9.651-11.581q0-4.724-5.232-4.724h-4.419v9.346h4.419Q946.577,432.229,946.579,427.607Z" transform="translate(-802.291 -415.874)" fill="#fff"/>
  <path id="Pfad_83" data-name="Pfad 83" d="M467.193,593.126l-.223.147c-9.686,6.377-20.967,8.832-32.624,8.832s-22.936-2.455-32.622-8.832l-.223-.147-4.322,6.565.223.147c10.973,7.224,23.748,10.127,36.944,10.127s25.973-2.9,36.946-10.127l.223-.147Z" transform="translate(-397.179 -551.088)" fill="#2a63f6"/>
</svg>
