<svg id="Gruppe_1" data-name="Gruppe 1" xmlns="http://www.w3.org/2000/svg" width="63" height="50" viewBox="0 0 63 50">
  <g id="Gruppe_56" data-name="Gruppe 56">
    <path id="Pfad_79" data-name="Pfad 79" d="M418.558,442H406.972l-1.924,5.64h-7.87L408.5,416.945h8.613l11.324,30.692h-7.957Zm-1.924-5.684-3.848-11.367L408.9,436.313Z" transform="translate(-397.179 -416.726)" fill="#101010"/>
    <path id="Pfad_80" data-name="Pfad 80" d="M578.863,442H567.277l-1.924,5.64h-7.87l11.324-30.692h8.613l11.323,30.692h-7.957Zm-1.924-5.684-3.848-11.367L569.2,436.313Z" transform="translate(-524.758 -416.726)" fill="#101010"/>
    <path id="Pfad_83" data-name="Pfad 83" d="M457.445,593.126l-.192.126c-8.338,5.489-18.048,7.6-28.082,7.6s-19.742-2.114-28.08-7.6l-.192-.126-3.72,5.651.192.127c9.445,6.218,20.441,8.717,31.8,8.717s22.357-2.5,31.8-8.717l.192-.127Z" transform="translate(-397.179 -556.941)" fill="#2a63f6"/>
  </g>
</svg>
