<svg xmlns="http://www.w3.org/2000/svg" width="141.797" height="135.783" viewBox="0 0 141.797 135.783">
  <g id="documentation" transform="translate(1 -10)">
    <g id="XMLID_92_" transform="translate(0 11)">
      <path id="XMLID_93_" d="M128.875,24.653H114.964V13.731A2.731,2.731,0,0,0,112.22,11H27.577a2.731,2.731,0,0,0-2.731,2.731V24.653H10.935A10.935,10.935,0,0,0,0,35.588v76.435a10.935,10.935,0,0,0,10.922,10.916h41.23v16.383H46.691a2.731,2.731,0,0,0,0,5.461H93.107a2.731,2.731,0,1,0,0-5.461H87.646V122.939h41.23A10.935,10.935,0,0,0,139.8,112.017V35.588a10.935,10.935,0,0,0-10.922-10.935ZM30.308,16.461H109.49v65.53H30.308ZM82.175,139.329H57.587v-16.39H82.175Zm52.152-27.305a5.468,5.468,0,0,1-5.461,5.461H10.922a5.468,5.468,0,0,1-5.461-5.461V35.588a5.468,5.468,0,0,1,5.461-5.461H24.834V84.721a2.731,2.731,0,0,0,2.731,2.731H112.22a2.731,2.731,0,0,0,2.731-2.731V30.114h13.911a5.468,5.468,0,0,1,5.474,5.474Z" transform="translate(0 -11)" fill="#2863f6"/>
      <path id="XMLID_93__-_Kontur" data-name="XMLID_93_ - Kontur" d="M112.233,10a3.707,3.707,0,0,1,2.632,1.086,3.755,3.755,0,0,1,1.1,2.644v9.922h12.911A11.935,11.935,0,0,1,140.8,35.588v76.429a11.935,11.935,0,0,1-11.921,11.922H88.646v14.383h4.461a3.731,3.731,0,0,1,0,7.461H46.691a3.731,3.731,0,1,1,0-7.461h4.461V123.939H10.922A11.935,11.935,0,0,1-1,112.025V35.588A11.935,11.935,0,0,1,10.935,23.653H23.847V13.731A3.735,3.735,0,0,1,27.577,10Zm16.642,111.939a9.935,9.935,0,0,0,9.922-9.923V35.588a9.935,9.935,0,0,0-9.923-9.935h-14.91V13.731a1.742,1.742,0,0,0-.51-1.227,1.72,1.72,0,0,0-1.221-.5H27.577a1.732,1.732,0,0,0-1.731,1.731V25.653H10.935A9.946,9.946,0,0,0,1,35.588v76.435a9.935,9.935,0,0,0,9.923,9.916H53.152v18.383H46.691a1.731,1.731,0,1,0,0,3.461H93.107a1.731,1.731,0,0,0,0-3.461H86.646V121.939ZM29.308,15.461H110.49v67.53H29.308Zm79.182,2H31.308v63.53H108.49Zm5.461,11.653h14.918a6.467,6.467,0,0,1,6.468,6.475l-.01,76.434a6.478,6.478,0,0,1-6.46,6.461H10.922a6.478,6.478,0,0,1-6.461-6.46V35.588a6.478,6.478,0,0,1,6.46-6.461H25.834V84.721a1.732,1.732,0,0,0,1.731,1.731H112.22a1.732,1.732,0,0,0,1.731-1.731Zm14.914,87.371a4.475,4.475,0,0,0,4.462-4.462l.01-76.434a4.468,4.468,0,0,0-4.468-4.474H115.951V84.721a3.735,3.735,0,0,1-3.731,3.731H27.564a3.735,3.735,0,0,1-3.731-3.731V31.127H10.922a4.475,4.475,0,0,0-4.461,4.462v76.434a4.475,4.475,0,0,0,4.462,4.461H128.864Zm-72.277,5.455H83.175v18.39H56.587Zm24.588,2H58.587v14.39H81.175Z" transform="translate(0 -11)" fill="#2863f7"/>
      <path id="XMLID_98_" d="M233.731,446.461h8.192a2.731,2.731,0,1,0,0-5.461h-8.192a2.731,2.731,0,1,0,0,5.461Z" transform="translate(-167.929 -323.594)" fill="#2863f6"/>
      <path id="XMLID_98__-_Kontur" data-name="XMLID_98_ - Kontur" d="M241.922,447.461h-8.192a3.731,3.731,0,1,1,0-7.461h8.192a3.731,3.731,0,1,1,0,7.461ZM233.731,442a1.731,1.731,0,1,0,0,3.461h8.192a1.731,1.731,0,1,0,0-3.461Z" transform="translate(-167.929 -323.594)" fill="#2863f7"/>
      <path id="XMLID_99_" d="M143.73,82.844h16.383a2.731,2.731,0,0,0,2.73-2.73V63.731A2.731,2.731,0,0,0,160.114,61H143.73A2.73,2.73,0,0,0,141,63.73V80.114a2.731,2.731,0,0,0,2.73,2.731Zm2.731-16.383h10.922V77.383H146.461Z" transform="translate(-102.501 -47.347)" fill="#2863f6"/>
      <path id="XMLID_99__-_Kontur" data-name="XMLID_99_ - Kontur" d="M143.73,83.844A3.735,3.735,0,0,1,140,80.114V63.731A3.735,3.735,0,0,1,143.73,60h16.383a3.735,3.735,0,0,1,3.73,3.731V80.114a3.735,3.735,0,0,1-3.73,3.73Zm0-21.844a1.732,1.732,0,0,0-1.73,1.73V80.114a1.733,1.733,0,0,0,1.73,1.731h16.383a1.732,1.732,0,0,0,1.73-1.73V63.731A1.733,1.733,0,0,0,160.114,62Zm14.653,16.383H145.461V65.461h12.922Zm-10.922-2h8.922V67.461h-8.922Z" transform="translate(-102.501 -47.347)" fill="#2863f7"/>
      <path id="XMLID_102_" d="M253.731,126.461h27.305a2.731,2.731,0,0,0,0-5.461H253.731a2.731,2.731,0,0,0,0,5.461Z" transform="translate(-182.468 -90.964)" fill="#2863f6"/>
      <path id="XMLID_102__-_Kontur" data-name="XMLID_102_ - Kontur" d="M281.036,127.461H253.731a3.731,3.731,0,0,1,0-7.461h27.305a3.731,3.731,0,0,1,0,7.461ZM253.731,122a1.731,1.731,0,1,0,0,3.461h27.305a1.731,1.731,0,0,0,0-3.461Z" transform="translate(-182.468 -90.964)" fill="#2863f7"/>
      <path id="XMLID_103_" d="M143.73,182.844h16.383a2.73,2.73,0,0,0,2.73-2.73V163.73a2.73,2.73,0,0,0-2.73-2.73H143.73a2.73,2.73,0,0,0-2.73,2.73v16.383a2.73,2.73,0,0,0,2.73,2.731Zm2.731-16.383h10.922v10.922H146.461Z" transform="translate(-102.501 -120.045)" fill="#2863f6"/>
      <path id="XMLID_103__-_Kontur" data-name="XMLID_103_ - Kontur" d="M160.114,183.844H143.73a3.735,3.735,0,0,1-3.73-3.731V163.73a3.735,3.735,0,0,1,3.73-3.73h16.383a3.735,3.735,0,0,1,3.73,3.73v16.383A3.735,3.735,0,0,1,160.114,183.844ZM143.73,162a1.732,1.732,0,0,0-1.73,1.73v16.383a1.732,1.732,0,0,0,1.73,1.731h16.383a1.732,1.732,0,0,0,1.73-1.73V163.73a1.732,1.732,0,0,0-1.73-1.73Zm14.653,16.383H145.461V165.461h12.922Zm-10.922-2h8.922v-8.922h-8.922Z" transform="translate(-102.501 -120.045)" fill="#2863f7"/>
      <path id="XMLID_130_" d="M253.731,226.461h27.305a2.731,2.731,0,1,0,0-5.461H253.731a2.73,2.73,0,1,0,0,5.461Z" transform="translate(-182.468 -163.662)" fill="#2863f6"/>
      <path id="XMLID_130__-_Kontur" data-name="XMLID_130_ - Kontur" d="M281.036,227.461H253.731a3.731,3.731,0,1,1,0-7.461h27.305a3.731,3.731,0,0,1,0,7.461ZM253.731,222a1.73,1.73,0,1,0,0,3.461h27.305a1.731,1.731,0,1,0,0-3.461Z" transform="translate(-182.468 -163.662)" fill="#2863f7"/>
      <path id="XMLID_131_" d="M253.731,186.461h13.653a2.731,2.731,0,0,0,0-5.461H253.731a2.731,2.731,0,0,0,0,5.461Z" transform="translate(-182.468 -134.584)" fill="#2863f6"/>
      <path id="XMLID_131__-_Kontur" data-name="XMLID_131_ - Kontur" d="M253.731,187.461a3.731,3.731,0,0,1,0-7.461h13.653a3.731,3.731,0,0,1,0,7.461H253.731Zm0-5.461a1.731,1.731,0,0,0,0,3.461h13.653a1.731,1.731,0,1,0,0-3.461Z" transform="translate(-182.468 -134.584)" fill="#2863f7"/>
      <path id="XMLID_132_" d="M253.731,86.461h13.653a2.731,2.731,0,1,0,0-5.461H253.731a2.731,2.731,0,1,0,0,5.461Z" transform="translate(-182.468 -61.886)" fill="#2863f6"/>
      <path id="XMLID_132__-_Kontur" data-name="XMLID_132_ - Kontur" d="M267.383,87.461H253.731a3.731,3.731,0,1,1,0-7.461h13.653a3.731,3.731,0,1,1,0,7.461ZM253.731,82a1.731,1.731,0,0,0,0,3.461h13.653a1.731,1.731,0,0,0,0-3.461Z" transform="translate(-182.468 -61.886)" fill="#2863f7"/>
    </g>
  </g>
</svg>
