<svg xmlns="http://www.w3.org/2000/svg" width="108.465" height="93.394" viewBox="0 0 108.465 93.394">
  <path id="Icon_feather-key" data-name="Icon feather-key" d="M30.632,102.44A31.628,31.628,0,1,1,49.988,45.8l35.58-35.58a4,4,0,0,1,5.657,0l15.07,15.07a4,4,0,0,1,0,5.657L88.713,48.527a4,4,0,0,1-5.657,0L70.814,36.286,55.649,51.451A31.632,31.632,0,0,1,30.632,102.44Zm0-55.244A23.607,23.607,0,1,0,47.34,54.1,23.556,23.556,0,0,0,30.631,47.2Zm45.84-16.567,9.413,9.413L97.81,28.117,88.4,18.7Z" transform="translate(0.999 -9.047)" fill="#2a63f6"/>
</svg>
