<svg xmlns="http://www.w3.org/2000/svg" width="163.479" height="140.352" viewBox="0 0 163.479 140.352">
  <g id="product-comparison" transform="translate(-720.374 -764.076)">
    <rect id="Rechteck_250" data-name="Rechteck 250" width="32.428" height="32.428" transform="translate(740.722 825.221)" fill="none"/>
    <path id="Pfad_1777" data-name="Pfad 1777" d="M738.115,901.517h91.77a1.168,1.168,0,1,0,0-2.332h-91.77a12.938,12.938,0,0,1-12.926-12.926V791H855.483v67.449a1.167,1.167,0,0,0,2.332,0v-76.63a15.274,15.274,0,0,0-15.241-15.241H738.115a15.273,15.273,0,0,0-15.241,15.241V886.259a15.273,15.273,0,0,0,15.241,15.257Zm0-132.629H842.557a12.939,12.939,0,0,1,12.926,12.926v6.849H725.189v-6.849a12.939,12.939,0,0,1,12.926-12.923Z" transform="translate(0 0)" fill="#2863f6"/>
    <path id="Pfad_1777_-_Kontur" data-name="Pfad 1777 - Kontur" d="M829.945,904.018h0l-.106,0H735.615v-.179a17.763,17.763,0,0,1-15.241-17.576V781.812a17.761,17.761,0,0,1,17.736-17.736H842.579a17.761,17.761,0,0,1,17.736,17.736v76.7l0,.068a3.667,3.667,0,0,1-7.324,0l0-.068V793.5H727.689v92.762a10.438,10.438,0,0,0,10.428,10.426h91.721a3.667,3.667,0,1,1,.107,7.333ZM727.689,786.162H852.983v-4.349a10.439,10.439,0,0,0-10.428-10.426H740.615l-2.5,0a10.439,10.439,0,0,0-10.428,10.426Z" transform="translate(0 0)" fill="#2863f6"/>
    <path id="Pfad_1779" data-name="Pfad 1779" d="M2617.949,2599.015a1.176,1.176,0,0,0,2.2,0L2632,2564.677a1.168,1.168,0,0,0-2.205-.762l-10.74,31.131-10.74-31.131a1.167,1.167,0,0,0-2.2.762Z" transform="translate(-1780.158 -1698.283)" fill="#2863f6"/>
    <path id="Pfad_1779_-_Kontur" data-name="Pfad 1779 - Kontur" d="M2619.052,2602.711l-.15-.435a3.694,3.694,0,0,1-3.295-2.386l-.021-.06-11.873-34.433a3.667,3.667,0,0,1,6.926-2.4l.036.1,8.377,24.281,8.413-24.379a3.669,3.669,0,0,1,4.61-2.128l0,0a3.66,3.66,0,0,1,2.311,4.521l-.031.1-11.865,34.4a3.693,3.693,0,0,1-3.293,2.386Z" transform="translate(-1780.158 -1698.283)" fill="#2863f6"/>
    <path id="Pfad_1780" data-name="Pfad 1780" d="M3205.257,2580.32h-3.937a7.418,7.418,0,1,1,0-14.837h3.282a7.426,7.426,0,0,1,7.42,7.42,1.168,1.168,0,0,0,2.331,0,9.761,9.761,0,0,0-9.751-9.751h-3.282a9.751,9.751,0,0,0,0,19.5h3.938a7.419,7.419,0,1,1,0,14.838l-3.281,0a7.426,7.426,0,0,1-7.42-7.42,1.167,1.167,0,1,0-2.331,0,9.761,9.761,0,0,0,9.75,9.751h3.282a9.751,9.751,0,1,0,0-19.5Z" transform="translate(-2333.654 -1698.302)" fill="#2863f6"/>
    <path id="Pfad_1780_-_Kontur" data-name="Pfad 1780 - Kontur" d="M3201.319,2560.653h3.282a12.261,12.261,0,0,1,12.251,12.249v.081l-.005.081a3.668,3.668,0,0,1-7.32,0l-.005-.079v-.079a4.934,4.934,0,0,0-4.922-4.922h-3.281a4.918,4.918,0,0,0,0,9.837h3.942a12.251,12.251,0,1,1,0,24.5h-3.283a12.261,12.261,0,0,1-12.249-12.2,3.656,3.656,0,0,1,1.774-3.259h0a3.666,3.666,0,0,1,3.779,0h0a3.656,3.656,0,0,1,1.778,3.249,4.933,4.933,0,0,0,4.921,4.879l3.281,0a4.919,4.919,0,0,0,0-9.838h-3.939a12.251,12.251,0,0,1,0-24.5Z" transform="translate(-2333.654 -1698.302)" fill="#2863f6"/>
    <path id="Pfad_1781" data-name="Pfad 1781" d="M2145.556,1823.44h30.774a5.026,5.026,0,0,0,4.268-7.682l-15.387-24.739a5.025,5.025,0,0,0-8.537,0l-15.388,24.739a5.027,5.027,0,0,0,4.267,7.683Zm-2.29-6.45,15.387-24.739a2.695,2.695,0,0,1,4.575,0l15.387,24.739a2.695,2.695,0,0,1-2.29,4.119h-30.774a2.694,2.694,0,0,1-2.29-4.118Z" transform="translate(-1340.106 -966.17)" fill="#2863f6"/>
    <path id="Pfad_1781_-_Kontur" data-name="Pfad 1781 - Kontur" d="M2145.552,1825.94a7.527,7.527,0,0,1-6.39-11.5l15.388-24.739a7.525,7.525,0,0,1,12.784,0l15.386,24.738a7.526,7.526,0,0,1-6.389,11.5Zm-.179-7.6a.194.194,0,0,0,.179.271h30.775a.195.195,0,0,0,.167-.3l-15.387-24.738a.193.193,0,0,0-.164-.091.2.2,0,0,0-.167.094Z" transform="translate(-1340.106 -966.17)" fill="#2863f6"/>
    <path id="Pfad_1782" data-name="Pfad 1782" d="M1028.753,1788.645a3.273,3.273,0,0,0-3.269,3.269v28.254a3.273,3.273,0,0,0,3.269,3.269h28.254a3.273,3.273,0,0,0,3.269-3.269v-28.254a3.272,3.272,0,0,0-3.269-3.269Zm29.185,3.269v28.254a.937.937,0,0,1-.937.937h-28.254a.937.937,0,0,1-.937-.937v-28.255a.937.937,0,0,1,.937-.937H1057a.937.937,0,0,1,.943.937Z" transform="translate(-286.072 -966.17)" fill="#2863f6"/>
    <path id="Pfad_1782_-_Kontur" data-name="Pfad 1782 - Kontur" d="M1028.751,1786.145h28.256a5.782,5.782,0,0,1,5.769,5.766v28.257a5.783,5.783,0,0,1-5.766,5.769h-28.257a5.782,5.782,0,0,1-5.769-5.767v-28.256A5.782,5.782,0,0,1,1028.751,1786.145Zm26.687,7.332H1030.31v25.128h25.128Z" transform="translate(-286.072 -966.17)" fill="#2863f6"/>
    <path id="Pfad_1783" data-name="Pfad 1783" d="M1816.769,1563.982a1.166,1.166,0,0,0-1.455.775l-19.071,62.193a1.167,1.167,0,1,0,2.231.684l19.071-62.193a1.169,1.169,0,0,0-.775-1.46Z" transform="translate(-1014.613 -753.749)" fill="#2863f6"/>
    <path id="Pfad_1783_-_Kontur" data-name="Pfad 1783 - Kontur" d="M1816.285,1561.221l1.215.37a3.669,3.669,0,0,1,2.435,4.584l-19.062,62.165a3.667,3.667,0,1,1-7.011-2.149l19.063-62.167a3.643,3.643,0,0,1,3.042-2.564Z" transform="translate(-1014.613 -753.749)" fill="#2863f6"/>
  </g>
</svg>
