<svg xmlns="http://www.w3.org/2000/svg" width="96.654" height="88.6" viewBox="0 0 96.654 88.6">
  <g id="Icons" transform="translate(0 -1)">
    <path id="Pfad_8008" data-name="Pfad 8008" d="M84.572,73.49H12.082A12.082,12.082,0,0,1,0,61.409V13.082A12.082,12.082,0,0,1,12.082,1h72.49A12.082,12.082,0,0,1,96.654,13.082V61.409A12.082,12.082,0,0,1,84.572,73.49ZM12.082,9.054a4.027,4.027,0,0,0-4.027,4.027V61.409a4.027,4.027,0,0,0,4.027,4.027h72.49A4.027,4.027,0,0,0,88.6,61.409V13.082a4.027,4.027,0,0,0-4.027-4.027Z" fill="#2a63f6"/>
    <path id="Pfad_8009" data-name="Pfad 8009" d="M43.245,29.054H11.027a4.027,4.027,0,1,1,0-8.054H43.245a4.027,4.027,0,1,1,0,8.054Z" transform="translate(21.191 60.545)" fill="#2a63f6"/>
    <path id="Pfad_8010" data-name="Pfad 8010" d="M50.319,45.272H10.046a4.078,4.078,0,0,1-4.027-4.511L10.046,8.544A4.027,4.027,0,0,1,14.073,5H46.291a4.027,4.027,0,0,1,4.027,3.544l4.027,32.218a4.019,4.019,0,0,1-4.027,4.511ZM14.6,37.218H45.768l-3.02-24.163H17.617Z" transform="translate(18.145 12.109)" fill="#2a63f6"/>
    <path id="Pfad_8011" data-name="Pfad 8011" d="M22.082,16.054H14.027a4.027,4.027,0,1,1,0-8.054h8.054a4.027,4.027,0,1,1,0,8.054Z" transform="translate(30.272 21.191)" fill="#2a63f6"/>
  </g>
</svg>
